<?xml version="1.0" standalone="no"?>
<!DOCTYPE svg PUBLIC "-//W3C//DTD SVG 20010904//EN"
 "http://www.w3.org/TR/2001/REC-SVG-20010904/DTD/svg10.dtd">
<svg version="1.0" xmlns="http://www.w3.org/2000/svg"
 width="3508.000000pt" height="2481.000000pt" viewBox="0 0 3508.000000 2481.000000"
 preserveAspectRatio="xMidYMid meet">

<g transform="translate(0.000000,2481.000000) scale(0.100000,-0.100000)"
fill="#000000" stroke="none">
<path d="M9475 20688 c-56 -21 -110 -66 -245 -204 -511 -523 -760 -1083 -787
-1764 -12 -330 43 -576 189 -826 32 -55 58 -113 58 -128 0 -15 -63 -151 -144
-308 -129 -251 -145 -279 -151 -252 -81 372 -276 779 -519 1081 -226 280 -360
369 -472 315 -82 -40 -137 -157 -189 -402 -37 -172 -46 -488 -20 -673 31 -220
107 -481 187 -642 92 -183 239 -351 400 -459 96 -64 145 -112 180 -178 33 -62
31 -174 -6 -287 -16 -46 -72 -283 -126 -525 -54 -243 -102 -454 -106 -470 -6
-25 -13 -12 -61 115 -132 352 -295 619 -505 826 -151 150 -226 196 -319 197
-132 2 -185 -105 -219 -443 -22 -225 -7 -506 41 -728 71 -336 257 -716 496
-1013 37 -46 120 -140 183 -208 135 -145 167 -190 175 -246 3 -22 -5 -129 -19
-236 -49 -377 -81 -801 -92 -1190 -5 -171 -10 -231 -21 -248 -14 -23 -17 -19
-120 150 -332 549 -693 933 -1106 1180 -282 168 -432 205 -513 124 -47 -47
-58 -98 -50 -246 26 -537 228 -1077 551 -1476 151 -185 396 -398 615 -535 47
-29 156 -90 243 -136 197 -103 256 -142 334 -220 69 -69 122 -163 148 -263 9
-34 20 -135 25 -224 12 -213 34 -330 116 -631 52 -187 74 -215 170 -215 91 0
144 47 144 129 0 22 -24 162 -54 313 -68 339 -126 703 -126 787 0 114 10 131
170 296 161 166 258 290 356 452 181 302 274 572 277 808 1 84 -2 106 -20 140
-26 50 -58 80 -105 100 -124 51 -277 -21 -538 -255 -74 -67 -153 -135 -174
-153 l-39 -31 7 169 c23 545 94 1321 132 1427 22 63 55 100 146 163 493 342
779 739 928 1285 26 98 27 198 0 251 -41 79 -146 127 -242 109 -81 -16 -179
-75 -458 -280 -80 -58 -151 -110 -159 -115 -29 -17 5 198 105 665 86 400 236
841 450 1325 103 234 342 718 374 758 33 41 66 54 175 67 363 42 670 167 930
380 103 84 270 263 346 370 124 174 217 332 233 394 33 126 -35 242 -168 286
-56 18 -267 8 -376 -19 -109 -26 -190 -54 -374 -130 -166 -68 -178 -68 -158 2
125 435 172 726 172 1053 0 159 -18 410 -36 499 -11 53 -51 111 -91 130 -47
22 -109 28 -148 13z"/>
<path d="M25474 20690 c-55 -22 -100 -114 -131 -267 -14 -71 -18 -137 -17
-343 0 -341 24 -499 139 -948 30 -117 55 -215 55 -217 0 -3 -26 7 -57 21 -201
91 -412 167 -548 195 -77 17 -288 17 -341 1 -55 -16 -103 -50 -132 -92 -21
-31 -23 -44 -20 -111 4 -69 11 -89 60 -190 114 -231 302 -482 468 -624 267
-229 559 -353 936 -400 133 -17 183 -35 225 -82 34 -40 287 -546 404 -813 271
-614 424 -1133 520 -1767 14 -91 24 -170 23 -174 -2 -5 -43 26 -93 68 -137
116 -219 175 -340 245 -138 80 -182 98 -246 98 -62 0 -105 -18 -148 -61 -71
-71 -82 -168 -36 -335 137 -506 428 -900 927 -1260 93 -67 120 -92 136 -126
15 -33 27 -104 46 -293 44 -426 82 -933 87 -1165 3 -173 1 -174 -103 -74 -248
237 -441 364 -553 364 -63 0 -128 -32 -167 -81 -57 -71 -56 -229 2 -469 76
-310 222 -571 441 -789 139 -139 194 -209 241 -306 69 -144 84 -285 48 -450
-63 -290 -160 -824 -155 -852 7 -39 52 -79 107 -94 90 -24 148 15 185 122 34
96 136 661 172 951 32 253 51 278 299 392 375 172 641 353 882 602 391 404
619 918 689 1556 22 193 11 270 -43 324 -84 84 -274 37 -526 -130 -384 -254
-681 -551 -937 -936 -38 -58 -112 -174 -163 -258 -84 -137 -95 -152 -107 -136
-9 12 -13 51 -13 113 0 288 -52 976 -111 1468 -18 151 -15 159 145 323 159
163 234 254 341 415 170 254 300 572 364 890 36 178 44 285 38 514 -12 436
-74 597 -232 595 -79 -2 -161 -50 -269 -159 -165 -166 -296 -350 -409 -572
-69 -135 -157 -346 -157 -374 0 -23 -28 -46 -34 -28 -3 8 -39 165 -81 349 -42
184 -101 436 -131 560 -73 298 -76 315 -64 359 13 48 49 82 135 122 118 57
298 259 432 486 232 395 301 842 207 1350 -70 379 -169 487 -357 386 -65 -35
-232 -200 -317 -315 -212 -284 -425 -727 -508 -1058 -8 -34 -12 -28 -150 247
-78 155 -142 291 -142 301 0 11 29 80 65 153 108 223 157 407 174 645 8 119 1
328 -14 421 -97 587 -340 1090 -700 1448 -116 116 -253 226 -320 256 -43 20
-87 23 -121 9z"/>
<path d="M17255 20030 c-88 -5 -221 -14 -295 -20 -1044 -86 -1945 -465 -2668
-1122 -203 -186 -469 -486 -457 -516 97 -239 136 -432 117 -582 -12 -96 -3
-115 65 -124 213 -31 390 -121 444 -227 61 -121 12 -270 -116 -345 -59 -34
-178 -62 -292 -69 -100 -5 -133 -17 -153 -55 -6 -12 -15 -92 -20 -178 -13
-229 -50 -343 -140 -433 -74 -74 -150 -87 -238 -43 -96 48 -175 185 -218 376
-30 130 -36 146 -69 158 -25 10 -118 -9 -136 -27 -5 -5 -43 -86 -83 -179 -117
-270 -153 -330 -270 -453 -86 -89 -145 -135 -295 -230 -246 -155 -433 -320
-539 -474 -176 -255 -254 -592 -207 -897 36 -238 134 -469 281 -662 115 -150
335 -343 471 -412 100 -50 118 -73 118 -149 -1 -75 -30 -143 -109 -256 -62
-87 -110 -138 -140 -147 -12 -4 -49 -33 -84 -65 -93 -87 -171 -124 -427 -199
-145 -43 -217 -77 -235 -110 -28 -52 2 -174 82 -334 247 -491 683 -853 1272
-1055 389 -134 682 -179 1212 -188 l330 -6 147 37 c271 68 495 156 716 282 64
36 122 72 129 79 11 10 -8 26 -108 86 -268 163 -569 419 -762 649 -301 359
-501 807 -588 1315 -11 65 -27 130 -36 142 -16 25 -37 36 -149 79 -219 84
-397 256 -479 464 -70 178 -86 321 -62 574 25 271 24 270 321 285 411 22 677
70 1055 193 639 207 1135 455 1620 807 656 476 1217 1186 1540 1951 29 69 56
129 60 133 4 4 10 -70 14 -166 13 -344 74 -593 214 -872 137 -274 315 -507
603 -791 694 -680 1523 -1088 2491 -1223 102 -15 201 -21 320 -21 161 0 176
-2 213 -23 28 -16 47 -38 67 -77 41 -82 51 -169 45 -370 -4 -142 -10 -193 -30
-270 -51 -197 -144 -348 -282 -458 -81 -66 -134 -95 -245 -136 -145 -54 -149
-61 -195 -309 -96 -518 -333 -977 -706 -1371 -171 -181 -408 -374 -628 -510
-61 -37 -108 -72 -106 -77 9 -14 164 -104 270 -157 157 -78 559 -229 610 -229
11 0 135 -4 275 -8 803 -24 1466 136 1975 477 358 241 600 528 730 867 48 126
61 193 45 230 -18 45 -46 58 -228 106 -295 77 -422 144 -580 308 -128 131
-212 266 -212 339 0 62 34 98 197 209 240 164 413 351 527 570 138 265 192
556 152 827 -49 330 -205 601 -476 826 -85 71 -133 105 -326 229 -228 146
-390 354 -487 622 -13 39 -37 96 -53 127 -24 49 -34 60 -77 78 -89 39 -122 10
-168 -150 -89 -307 -272 -461 -425 -357 -120 81 -173 231 -174 490 0 167 -19
188 -180 202 -198 16 -377 114 -427 232 -20 49 -17 139 7 189 54 111 227 209
404 229 47 5 65 13 89 36 l29 29 -7 128 c-10 203 26 345 119 462 l34 44 -70
85 c-618 757 -1400 1236 -2388 1465 -186 43 -414 81 -611 102 -172 18 -724 26
-954 14z m1750 -2805 c146 -240 290 -419 501 -626 217 -212 446 -384 740 -557
149 -88 481 -251 673 -331 l145 -59 -40 -9 c-21 -4 -124 -8 -229 -8 -172 1
-200 3 -295 27 -510 128 -1004 503 -1343 1018 -92 140 -226 416 -276 567 -32
96 -91 341 -91 378 0 4 33 -60 74 -142 40 -82 104 -198 141 -258z m-2847 -95
c4 -49 -18 -107 -100 -274 -178 -357 -427 -642 -751 -857 -243 -160 -488 -267
-827 -360 -177 -48 -239 -51 -269 -13 -48 62 -11 114 127 180 53 25 180 84
280 131 263 120 424 212 618 352 284 204 598 513 806 795 33 45 65 84 72 88
25 17 41 3 44 -42z"/>
<path d="M15645 14856 c-189 -43 -358 -155 -459 -303 -67 -98 -90 -169 -90
-278 -1 -78 2 -96 24 -135 49 -87 164 -120 244 -71 20 13 61 58 91 100 112
161 235 243 363 244 164 2 277 -80 400 -289 69 -119 135 -157 225 -130 141 42
183 160 122 342 -82 244 -267 424 -520 504 -89 29 -308 37 -400 16z"/>
<path d="M19118 14850 c-172 -36 -310 -112 -427 -235 -130 -137 -208 -363
-171 -497 22 -79 89 -128 175 -128 84 0 124 35 197 171 57 109 116 170 201
209 125 59 276 51 389 -22 63 -39 101 -84 143 -167 58 -116 120 -149 221 -117
138 44 186 164 131 327 -34 99 -83 174 -177 269 -182 183 -412 247 -682 190z"/>
<path d="M16660 12509 c-70 -41 -117 -140 -100 -214 13 -56 57 -122 135 -200
353 -353 894 -445 1361 -230 154 70 320 208 409 338 34 51 40 67 43 126 4 63
2 69 -30 111 -64 85 -162 114 -233 70 -18 -11 -58 -51 -88 -88 -30 -37 -78
-86 -108 -109 -177 -134 -444 -200 -649 -159 -169 35 -292 102 -438 240 -55
52 -118 104 -140 115 -52 27 -116 27 -162 0z"/>
<path d="M15973 10291 c-61 -28 -96 -86 -101 -167 -4 -55 -1 -69 22 -108 28
-48 88 -95 146 -115 19 -7 80 -16 135 -21 190 -18 289 -59 473 -197 220 -165
402 -363 530 -574 34 -58 62 -109 62 -116 0 -6 -23 -38 -50 -70 -148 -171
-216 -457 -251 -1053 -21 -362 0 -762 57 -1068 46 -252 93 -415 186 -649 l60
-151 77 -56 c172 -124 221 -125 381 -11 70 51 79 62 113 134 20 43 49 92 65
108 47 51 143 419 187 718 47 317 71 774 55 1022 -31 477 -96 761 -213 937
-88 134 -88 134 -71 175 20 48 96 170 161 259 164 223 353 388 582 506 100 52
168 71 306 87 126 15 193 39 243 90 52 51 72 95 72 159 0 79 -37 133 -112 165
-54 22 -112 19 -240 -14 -164 -43 -294 -92 -453 -171 -182 -91 -303 -178 -445
-320 -100 -99 -136 -145 -265 -337 -82 -123 -152 -223 -156 -223 -4 0 -45 62
-92 138 -107 173 -199 292 -313 406 -244 242 -563 417 -935 511 -117 30 -160
31 -216 6z m1595 -1585 c65 -34 98 -97 137 -257 55 -232 80 -577 72 -984 -8
-382 -48 -664 -137 -971 -32 -109 -85 -252 -99 -267 -10 -11 -93 169 -125 271
-89 285 -143 782 -133 1236 10 492 76 857 173 954 35 35 68 41 112 18z"/>
</g>
</svg>
